<?xml version="1.0" encoding="UTF-8"?>
<svg width="21px" height="17px" viewBox="0 0 21 17" version="1.1" xmlns="http://www.w3.org/2000/svg" xmlns:xlink="http://www.w3.org/1999/xlink">
    <!-- Generator: Sketch 43.2 (39069) - http://www.bohemiancoding.com/sketch -->
    <title>icons / alert-white</title>
    <desc>Created with Sketch.</desc>
    <defs></defs>
    <g id="Symbols" stroke="none" stroke-width="1" fill="none" fill-rule="evenodd">
        <g id="icons-/-alert-white" fill="#FFFFFF">
            <path d="M20.3142361,15.8715278 C20.4878481,16.1898164 20.516783,16.4502305 20.4010417,16.6527778 C20.256365,16.8842604 20.0538207,17 19.7934028,17 L1.65104167,17 C1.3906237,17 1.18807943,16.8842604 1.04340278,16.6527778 C0.927661458,16.4502305 0.956596354,16.1898164 1.13020833,15.8715278 L10.1145833,0.723958333 C10.25926,0.463540365 10.4618043,0.333333333 10.7222222,0.333333333 C10.9826402,0.333333333 11.1851845,0.463540365 11.3298611,0.723958333 L20.3142361,15.8715278 Z M12.1111111,14.9166667 L12.1111111,12.8333333 L9.33333333,12.8333333 L9.33333333,14.9166667 L12.1111111,14.9166667 Z M12.1111111,11.4444444 L12.1111111,5.19444444 L9.33333333,5.19444444 L9.33333333,11.4444444 L12.1111111,11.4444444 Z" id="ion-alert-circled---Ionicons"></path>
        </g>
    </g>
</svg>
