<?xml version="1.0" encoding="UTF-8" standalone="no"?>
<svg
   xmlns:dc="http://purl.org/dc/elements/1.1/"
   xmlns:cc="http://creativecommons.org/ns#"
   xmlns:rdf="http://www.w3.org/1999/02/22-rdf-syntax-ns#"
   xmlns:svg="http://www.w3.org/2000/svg"
   xmlns="http://www.w3.org/2000/svg"
   id="svg11"
   version="1.1"
   viewBox="0 0 14 11"
   height="11px"
   width="14px">
  <metadata
     id="metadata15">
    <rdf:RDF>
      <cc:Work
         rdf:about="">
        <dc:format>image/svg+xml</dc:format>
        <dc:type
           rdf:resource="http://purl.org/dc/dcmitype/StillImage" />
        <dc:title>icons / arrow-right-white</dc:title>
      </cc:Work>
    </rdf:RDF>
  </metadata>
  <!-- Generator: Sketch 43.2 (39069) - http://www.bohemiancoding.com/sketch -->
  <title
     id="title2">icons / arrow-right-white</title>
  <desc
     id="desc4">Created with Sketch.</desc>
  <defs
     id="defs6" />
  <g
     id="g4518">
    <path
       style="fill:#000000;fill-rule:evenodd;stroke:none;stroke-width:1"
       d="M 9.4921875,0.5 13.398438,4.6015625 C 13.632814,4.8359387 13.75,5.1354148 13.75,5.5 c 0,0.3385434 -0.117186,0.6249988 -0.351562,0.859375 L 9.4921875,10.5 C 9.2578113,10.734376 8.9778662,10.851563 8.6523438,10.851563 8.3268213,10.851563 8.0468762,10.734376 7.8125,10.5 7.5781238,10.265624 7.4609375,9.9661477 7.4609375,9.6015625 7.4609375,9.2369773 7.5781238,8.9375012 7.8125,8.703125 L 9.6875,6.75 H 1.2109375 C 0.87239414,6.75 0.58593867,6.6263033 0.3515625,6.3789062 0.11718633,6.1315092 0,5.8385434 0,5.5 0,5.1614566 0.11718633,4.8684908 0.3515625,4.6210937 0.58593867,4.3736967 0.87239414,4.25 1.2109375,4.25 H 9.6875 L 7.7734375,2.296875 C 7.5390613,2.0624988 7.421875,1.7630227 7.421875,1.3984375 7.421875,1.0338523 7.5390613,0.73437617 7.7734375,0.5 8.0078137,0.26562383 8.2942691,0.1484375 8.6328125,0.1484375 c 0.3385434,0 0.6249988,0.11718633 0.859375,0.3515625 z"
       id="ion-arrow-right-c---Ionicons" />
  </g>
</svg>
