<?xml version="1.0" encoding="UTF-8"?>
<svg width="17px" height="17px" viewBox="0 0 17 17" version="1.1" xmlns="http://www.w3.org/2000/svg" xmlns:xlink="http://www.w3.org/1999/xlink">
    <!-- Generator: Sketch 43.2 (39069) - http://www.bohemiancoding.com/sketch -->
    <title>icons / info-white</title>
    <desc>Created with Sketch.</desc>
    <defs></defs>
    <g id="Symbols" stroke="none" stroke-width="1" fill="none" fill-rule="evenodd">
        <g id="icons-/-info-white" fill="#FFFFFF">
            <path d="M8.125,0.375 C10.3645945,0.375 12.2786379,1.16926289 13.8671875,2.7578125 C15.4557371,4.34636211 16.25,6.26040547 16.25,8.5 C16.25,10.7395945 15.4557371,12.6536379 13.8671875,14.2421875 C12.2786379,15.8307371 10.3645945,16.625 8.125,16.625 C5.88540547,16.625 3.97136211,15.8307371 2.3828125,14.2421875 C0.794262891,12.6536379 0,10.7395945 0,8.5 C0,6.26040547 0.794262891,4.34636211 2.3828125,2.7578125 C3.97136211,1.16926289 5.88540547,0.375 8.125,0.375 Z M7.96875,4.4375 C7.76041563,4.4375 7.57812578,4.51562422 7.421875,4.671875 C7.26562422,4.82812578 7.1875,5.01041563 7.1875,5.21875 C7.1875,5.42708437 7.26562422,5.60937422 7.421875,5.765625 C7.57812578,5.92187578 7.76041563,6 7.96875,6 C8.17708437,6 8.35937422,5.92187578 8.515625,5.765625 C8.67187578,5.60937422 8.75,5.42708437 8.75,5.21875 C8.75,5.01041563 8.67187578,4.82812578 8.515625,4.671875 C8.35937422,4.51562422 8.17708437,4.4375 7.96875,4.4375 Z M9.375,12.25 L9.375,11.9375 L8.75,11.9375 L8.75,6.9375 L6.875,6.9375 L6.875,7.25 L7.5,7.25 L7.5,11.9375 L6.875,11.9375 L6.875,12.25 L9.375,12.25 Z" id="ion-ios-information---Ionicons"></path>
        </g>
    </g>
</svg>
