<?xml version="1.0" encoding="UTF-8" standalone="no"?>
<svg
   xmlns:dc="http://purl.org/dc/elements/1.1/"
   xmlns:cc="http://creativecommons.org/ns#"
   xmlns:rdf="http://www.w3.org/1999/02/22-rdf-syntax-ns#"
   xmlns:svg="http://www.w3.org/2000/svg"
   xmlns="http://www.w3.org/2000/svg"
   id="svg11"
   version="1.1"
   viewBox="0 0 20 20"
   height="20px"
   width="20px">
  <metadata
     id="metadata15">
    <rdf:RDF>
      <cc:Work
         rdf:about="">
        <dc:format>image/svg+xml</dc:format>
        <dc:type
           rdf:resource="http://purl.org/dc/dcmitype/StillImage" />
        <dc:title>icons / notification-white</dc:title>
      </cc:Work>
    </rdf:RDF>
  </metadata>
  <!-- Generator: Sketch 43.2 (39069) - http://www.bohemiancoding.com/sketch -->
  <title
     id="title2">icons / notification-white</title>
  <desc
     id="desc4">Created with Sketch.</desc>
  <defs
     id="defs6" />
  <g
     id="g4515">
    <path
       style="fill:#000000;fill-rule:evenodd;stroke:none;stroke-width:1"
       d="m 17.695312,14.15625 c 0.338544,0.416669 0.605468,0.787759 0.800782,1.113281 0.195313,0.325523 0.214844,0.65104 0.05859,0.976563 -0.15625,0.325522 -0.410154,0.514322 -0.761718,0.566406 -0.351565,0.05208 -0.624999,0.07813 -0.820313,0.07813 H 13.32031 c 0,0.924484 -0.325518,1.712236 -0.976563,2.363281 -0.651045,0.651045 -1.438797,0.976563 -2.3632812,0.976563 -0.9244838,0 -1.7122364,-0.325518 -2.3632813,-0.976563 C 6.9661426,18.602861 6.640625,17.815109 6.640625,16.890625 H 3.0664063 c -0.2994807,0 -0.6087224,-0.03581 -0.9277344,-0.107422 -0.319012,-0.07162 -0.5501295,-0.25065 -0.6933594,-0.537109 -0.1562508,-0.325523 -0.1432301,-0.660806 0.039063,-1.00586 0.1822926,-0.345053 0.4296859,-0.725909 0.7421875,-1.142578 0.3515643,-0.455731 0.735675,-0.973304 1.1523438,-1.552734 0.4166687,-0.57943 0.6249999,-1.181638 0.6249999,-1.806641 V 6.65625 c 0,-0.8854211 0.1529933,-1.7154909 0.4589844,-2.4902344 0.3059911,-0.7747434 0.7259088,-1.45182 1.2597656,-2.03125 0.5338569,-0.57943 1.165361,-1.0351546 1.8945313,-1.36718748 0.7291703,-0.3320329 1.5104125,-0.49804687 2.34375,-0.49804687 0.846359,0 1.63411,0.16601397 2.363281,0.49804687 0.72917,0.33203288 1.363929,0.78775748 1.904297,1.36718748 0.540367,0.57943 0.96354,1.2565066 1.269531,2.03125 0.305991,0.7747435 0.458984,1.6048133 0.458984,2.4902344 v 4.082031 c 0,0.638024 0.198566,1.256508 0.595703,1.855469 0.397138,0.598961 0.777993,1.11979 1.142578,1.5625 z m -7.7148432,4.765625 c 0.5598982,0 1.0384092,-0.198566 1.4355472,-0.595703 0.397137,-0.397138 0.595703,-0.875648 0.595703,-1.435547 H 7.9492187 c 0,0.559899 0.1985658,1.038409 0.5957032,1.435547 0.3971374,0.397137 0.8756482,0.595703 1.4355469,0.595703 z M 17.109375,15.5625 c -0.0651,-0.09115 -0.136718,-0.185546 -0.214844,-0.283203 -0.07813,-0.09766 -0.156249,-0.192057 -0.234375,-0.283203 -0.429689,-0.520836 -0.875648,-1.142575 -1.33789,-1.865235 -0.462242,-0.722659 -0.69336,-1.520178 -0.69336,-2.392578 V 6.65625 c 0,-0.7031285 -0.120441,-1.360674 -0.361328,-1.9726563 C 14.026692,4.0716115 13.697919,3.5377627 13.28125,3.0820313 12.864581,2.6262998 12.37305,2.2649753 11.806641,1.9980469 11.240232,1.7311185 10.625003,1.5976562 9.9609375,1.5976562 c -0.6510449,0 -1.2597628,0.1334623 -1.8261719,0.4003907 C 7.5683565,2.2649753 7.076825,2.6262998 6.6601562,3.0820313 6.2434875,3.5377627 5.9179699,4.0716115 5.6835937,4.6835937 5.4492176,5.295576 5.3320312,5.9531215 5.3320312,6.65625 v 4.082031 c 0,0.846359 -0.2441381,1.624346 -0.7324218,2.333985 -0.4882837,0.709639 -0.9212221,1.318356 -1.2988281,1.826172 -0.078125,0.104167 -0.1595048,0.214843 -0.2441407,0.332031 -0.084636,0.117188 -0.1595049,0.227864 -0.2246093,0.332031 z"
       id="Bell---simple-line-icons" />
  </g>
</svg>
