<svg xmlns="http://www.w3.org/2000/svg" height="11" width="14"><path d="M9.492.5l3.906 4.102c.235.234.352.533.352.898 0 .339-.117.625-.352.86L9.492 10.5a1.146 1.146 0 0 1-.84.352c-.325 0-.605-.118-.84-.352-.234-.234-.351-.534-.351-.898 0-.365.117-.664.351-.899L9.688 6.75H1.211c-.339 0-.625-.124-.86-.371A1.235 1.235 0 0 1 0 5.5c0-.339.117-.632.352-.879.234-.247.52-.371.859-.371h8.476L7.774 2.297c-.234-.235-.351-.534-.351-.899 0-.364.117-.664.351-.898.235-.234.521-.352.86-.352.338 0 .625.118.86.352z" fill-rule="evenodd"/></svg>
