<svg width="17" height="17" xmlns="http://www.w3.org/2000/svg"><path d="M8.125.375c2.24 0 4.154.794 5.742 2.383C15.456 4.346 16.25 6.26 16.25 8.5s-.794 4.154-2.383 5.742c-1.588 1.589-3.502 2.383-5.742 2.383s-4.154-.794-5.742-2.383C.794 12.654 0 10.74 0 8.5s.794-4.154 2.383-5.742C3.97 1.169 5.885.375 8.125.375zm-.156 4.063a.75.75 0 0 0-.547.234.75.75 0 0 0-.234.547c0 .208.078.39.234.547A.75.75 0 0 0 7.969 6a.75.75 0 0 0 .547-.234.75.75 0 0 0 .234-.547.75.75 0 0 0-.234-.547.75.75 0 0 0-.547-.234zm1.406 7.812v-.313H8.75v-5H6.875v.313H7.5v4.688h-.625v.312h2.5z" fill="#000" fill-rule="evenodd"/></svg>
