<svg xmlns="http://www.w3.org/2000/svg" height="20" width="20"><path d="M17.695 14.156c.339.417.606.788.801 1.114.195.325.215.65.059.976a.957.957 0 0 1-.762.567 5.99 5.99 0 0 1-.82.078H13.32a3.22 3.22 0 0 1-.976 2.363 3.22 3.22 0 0 1-2.364.976 3.22 3.22 0 0 1-2.363-.976 3.22 3.22 0 0 1-.976-2.363H3.066c-.3 0-.608-.036-.927-.108a.976.976 0 0 1-.694-.537c-.156-.325-.143-.66.04-1.006.182-.345.43-.726.742-1.142a57.97 57.97 0 0 0 1.152-1.553c.417-.58.625-1.182.625-1.807V6.656c0-.885.153-1.715.459-2.49a6.475 6.475 0 0 1 1.26-2.031A5.837 5.837 0 0 1 7.617.768 5.589 5.589 0 0 1 9.961.27c.846 0 1.634.166 2.363.498.73.332 1.364.787 1.905 1.367.54.58.963 1.256 1.269 2.031.306.775.459 1.605.459 2.49v4.082c0 .638.199 1.257.596 1.856.397.599.778 1.12 1.142 1.562zM9.98 18.922c.56 0 1.039-.199 1.436-.596.397-.397.596-.875.596-1.435H7.949c0 .56.199 1.038.596 1.435.397.397.876.596 1.435.596zm7.13-3.36a6.532 6.532 0 0 0-.215-.283 19.21 19.21 0 0 1-1.572-2.148 4.35 4.35 0 0 1-.694-2.393V6.656c0-.703-.12-1.36-.361-1.972a5.134 5.134 0 0 0-.987-1.602 4.681 4.681 0 0 0-1.474-1.084 4.275 4.275 0 0 0-1.846-.4 4.23 4.23 0 0 0-1.826.4A4.681 4.681 0 0 0 6.66 3.082c-.417.456-.742.99-.976 1.602a5.469 5.469 0 0 0-.352 1.972v4.082a4.03 4.03 0 0 1-.732 2.334 62.142 62.142 0 0 1-1.543 2.158c-.085.118-.16.228-.225.333z" fill-rule="evenodd"/></svg>

