<?xml version="1.0" encoding="UTF-8"?>
<svg width="14px" height="11px" viewBox="0 0 14 11" version="1.1" xmlns="http://www.w3.org/2000/svg" xmlns:xlink="http://www.w3.org/1999/xlink">
    <!-- Generator: Sketch 43.2 (39069) - http://www.bohemiancoding.com/sketch -->
    <title>icons / arrow-right-white</title>
    <desc>Created with Sketch.</desc>
    <defs></defs>
    <g id="Symbols" stroke="none" stroke-width="1" fill="none" fill-rule="evenodd">
        <g id="icons-/-arrow-right-white" fill="#FFFFFF">
            <path d="M9.4921875,0.5 L13.3984375,4.6015625 C13.6328137,4.83593867 13.75,5.13541484 13.75,5.5 C13.75,5.83854336 13.6328137,6.12499883 13.3984375,6.359375 L9.4921875,10.5 C9.25781133,10.7343762 8.97786621,10.8515625 8.65234375,10.8515625 C8.32682129,10.8515625 8.04687617,10.7343762 7.8125,10.5 C7.57812383,10.2656238 7.4609375,9.96614766 7.4609375,9.6015625 C7.4609375,9.23697734 7.57812383,8.93750117 7.8125,8.703125 L9.6875,6.75 L1.2109375,6.75 C0.872394141,6.75 0.585938672,6.62630332 0.3515625,6.37890625 C0.117186328,6.13150918 0,5.83854336 0,5.5 C0,5.16145664 0.117186328,4.86849082 0.3515625,4.62109375 C0.585938672,4.37369668 0.872394141,4.25 1.2109375,4.25 L9.6875,4.25 L7.7734375,2.296875 C7.53906133,2.06249883 7.421875,1.76302266 7.421875,1.3984375 C7.421875,1.03385234 7.53906133,0.734376172 7.7734375,0.5 C8.00781367,0.265623828 8.29426914,0.1484375 8.6328125,0.1484375 C8.97135586,0.1484375 9.25781133,0.265623828 9.4921875,0.5 Z" id="ion-arrow-right-c---Ionicons"></path>
        </g>
    </g>
</svg>