<?xml version="1.0" encoding="UTF-8"?>
<svg width="20px" height="20px" viewBox="0 0 20 20" version="1.1" xmlns="http://www.w3.org/2000/svg" xmlns:xlink="http://www.w3.org/1999/xlink">
    <!-- Generator: Sketch 43.1 (39012) - http://www.bohemiancoding.com/sketch -->
    <title>icons / email</title>
    <desc>Created with Sketch.</desc>
    <defs></defs>
    <g id="Symbols" stroke="none" stroke-width="1" fill="none" fill-rule="evenodd">
        <g id="icons-/-email" fill="#808080">
            <path d="M10,20 C15.5228475,20 20,15.5228475 20,10 C20,4.47715251 15.5228475,0 10,0 C4.47715251,0 0,4.47715251 0,10 C0,15.5228475 4.47715251,20 10,20 Z M15.5263158,8.59368618 C15.350094,8.78753016 15.1503759,8.95787791 14.9389097,9.10472941 C13.9579417,9.7684982 12.9710996,10.4381411 12.0136278,11.1312802 C11.5202067,11.4954719 10.9093045,11.9419005 10.2690319,11.9419005 L10.2631579,11.9419005 L10.2572838,11.9419005 C9.61701126,11.9419005 9.00610901,11.4954719 8.51268796,11.1312802 C7.55521615,10.432267 6.56837405,9.7684982 5.59328007,9.10472941 C5.37593985,8.95787791 5.1762218,8.78753016 5,8.59368618 L5,13.2576899 C5,13.7746072 5.42293233,14.1975395 5.93984962,14.1975395 L14.5864661,14.1975395 C15.1033834,14.1975395 15.5263158,13.7746072 15.5263158,13.2576899 L15.5263158,8.59368618 Z M15.5263158,6.50177516 C15.5263158,5.98485787 15.0975094,5.56192554 14.5864661,5.56192554 L5.93984962,5.56192554 C5.31132518,5.56192554 5,6.05534659 5,6.63100448 C5,7.16554396 5.59328007,7.82931275 6.01033834,8.11126764 C6.92081766,8.74566613 7.8430451,9.38006463 8.75352442,10.0203372 C9.13533833,10.2846699 9.78148494,10.8250834 10.2572838,10.8250834 L10.2631579,10.8250834 L10.2690319,10.8250834 C10.7448308,10.8250834 11.3909774,10.2846699 11.7727913,10.0203372 C12.6832707,9.38006463 13.6054981,8.74566613 14.5218515,8.11126764 C15.0387687,7.75294997 15.5263158,7.1596699 15.5263158,6.50177516 Z" id="icons/email"></path>
        </g>
    </g>
</svg>