<svg width="20" height="20" xmlns="http://www.w3.org/2000/svg"><path d="M10 20c5.523 0 10-4.477 10-10S15.523 0 10 0 0 4.477 0 10s4.477 10 10 10zm6.316-11.762a4.152 4.152 0 0 1-.705.613 135.01 135.01 0 0 0-3.51 2.432c-.593.437-1.326.973-2.094.973h-.014c-.768 0-1.501-.536-2.094-.973-1.149-.839-2.333-1.635-3.503-2.432-.26-.176-.5-.38-.712-.613v5.597c0 .62.508 1.127 1.128 1.127h10.376c.62 0 1.128-.507 1.128-1.127V8.238zm0-2.073c0-.62-.515-1.127-1.128-1.127H4.812c-.754 0-1.128.592-1.128 1.282 0 .642.712 1.438 1.213 1.777 1.092.761 2.199 1.522 3.291 2.29.459.318 1.234.966 1.805.966h.014c.571 0 1.346-.648 1.805-.965 1.092-.769 2.199-1.53 3.298-2.291.62-.43 1.206-1.142 1.206-1.932z" fill="#FFF" fill-rule="evenodd" opacity=".5"/></svg>
