<?xml version="1.0" encoding="UTF-8" standalone="no"?>
<!-- This Source Code Form is subject to the terms of the Mozilla Public
   - License, v. 2.0. If a copy of the MPL was not distributed with this
   - file, You can obtain one at http://mozilla.org/MPL/2.0/. -->

<svg
   xmlns:dc="http://purl.org/dc/elements/1.1/"
   xmlns:cc="http://creativecommons.org/ns#"
   xmlns:rdf="http://www.w3.org/1999/02/22-rdf-syntax-ns#"
   xmlns:svg="http://www.w3.org/2000/svg"
   xmlns="http://www.w3.org/2000/svg"
   xmlns:xlink="http://www.w3.org/1999/xlink"
   xmlns:sodipodi="http://sodipodi.sourceforge.net/DTD/sodipodi-0.dtd"
   xmlns:inkscape="http://www.inkscape.org/namespaces/inkscape"
   width="240"
   height="240"
   viewBox="0 0 240 240"
   version="1.1"
   id="svg78"
   sodipodi:docname="error.svg"
   inkscape:version="0.92+devel unknown">
  <metadata
     id="metadata82">
    <rdf:RDF>
      <cc:Work
         rdf:about="">
        <dc:format>image/svg+xml</dc:format>
        <dc:type
           rdf:resource="http://purl.org/dc/dcmitype/StillImage" />
        <dc:title></dc:title>
      </cc:Work>
    </rdf:RDF>
  </metadata>
  <sodipodi:namedview
     pagecolor="#ffffff"
     bordercolor="#666666"
     inkscape:document-rotation="0"
     borderopacity="1"
     objecttolerance="10"
     gridtolerance="10"
     guidetolerance="10"
     inkscape:pageopacity="0"
     inkscape:pageshadow="2"
     inkscape:window-width="1920"
     inkscape:window-height="1016"
     id="namedview80"
     showgrid="false"
     inkscape:zoom="2.7133333"
     inkscape:cx="150"
     inkscape:cy="150"
     inkscape:window-x="0"
     inkscape:window-y="0"
     inkscape:window-maximized="1"
     inkscape:current-layer="svg78" />
  <defs
     id="defs12">
    <linearGradient
       id="a"
       x1="-300.021"
       y1="-272.73599"
       x2="547.138"
       y2="574.42297"
       gradientUnits="userSpaceOnUse">
      <stop
         offset="0"
         stop-color="#ccfbff"
         id="stop2" />
      <stop
         offset="1"
         stop-color="#c9e4ff"
         id="stop4" />
    </linearGradient>
    <linearGradient
       id="b"
       x1="-18.672001"
       y1="23.780001"
       x2="279.80499"
       y2="322.25601"
       gradientUnits="userSpaceOnUse">
      <stop
         offset="0"
         stop-color="#00c8d7"
         id="stop7" />
      <stop
         offset="1"
         stop-color="#0a84ff"
         id="stop9" />
    </linearGradient>
    <linearGradient
       inkscape:collect="always"
       xlink:href="#b"
       id="linearGradient4375"
       gradientUnits="userSpaceOnUse"
       x1="-18.672001"
       y1="23.780001"
       x2="279.80499"
       y2="322.25601" />
    <linearGradient
       inkscape:collect="always"
       xlink:href="#b"
       id="linearGradient4377"
       gradientUnits="userSpaceOnUse"
       x1="-18.672001"
       y1="23.780001"
       x2="279.80499"
       y2="322.25601" />
    <linearGradient
       inkscape:collect="always"
       xlink:href="#b"
       id="linearGradient4379"
       gradientUnits="userSpaceOnUse"
       x1="-18.672001"
       y1="23.780001"
       x2="279.80499"
       y2="322.25601" />
    <linearGradient
       inkscape:collect="always"
       xlink:href="#b"
       id="linearGradient4381"
       gradientUnits="userSpaceOnUse"
       x1="-18.672001"
       y1="23.780001"
       x2="279.80499"
       y2="322.25601" />
    <linearGradient
       inkscape:collect="always"
       xlink:href="#b"
       id="linearGradient4383"
       gradientUnits="userSpaceOnUse"
       x1="-18.672001"
       y1="23.780001"
       x2="279.80499"
       y2="322.25601" />
    <linearGradient
       inkscape:collect="always"
       xlink:href="#b"
       id="linearGradient4385"
       gradientUnits="userSpaceOnUse"
       x1="-18.672001"
       y1="23.780001"
       x2="279.80499"
       y2="322.25601" />
    <linearGradient
       inkscape:collect="always"
       xlink:href="#b"
       id="linearGradient4387"
       gradientUnits="userSpaceOnUse"
       x1="-18.672001"
       y1="23.780001"
       x2="279.80499"
       y2="322.25601" />
    <linearGradient
       inkscape:collect="always"
       xlink:href="#b"
       id="linearGradient4389"
       gradientUnits="userSpaceOnUse"
       x1="-18.672001"
       y1="23.780001"
       x2="279.80499"
       y2="322.25601" />
    <linearGradient
       inkscape:collect="always"
       xlink:href="#b"
       id="linearGradient4391"
       gradientUnits="userSpaceOnUse"
       x1="-18.672001"
       y1="23.780001"
       x2="279.80499"
       y2="322.25601" />
    <linearGradient
       inkscape:collect="always"
       xlink:href="#b"
       id="linearGradient4393"
       gradientUnits="userSpaceOnUse"
       x1="-18.672001"
       y1="23.780001"
       x2="279.80499"
       y2="322.25601" />
    <linearGradient
       inkscape:collect="always"
       xlink:href="#b"
       id="linearGradient4395"
       gradientUnits="userSpaceOnUse"
       x1="-18.672001"
       y1="23.780001"
       x2="279.80499"
       y2="322.25601" />
    <linearGradient
       inkscape:collect="always"
       xlink:href="#b"
       id="linearGradient4397"
       gradientUnits="userSpaceOnUse"
       x1="-18.672001"
       y1="23.780001"
       x2="279.80499"
       y2="322.25601" />
    <linearGradient
       inkscape:collect="always"
       xlink:href="#b"
       id="linearGradient4399"
       gradientUnits="userSpaceOnUse"
       x1="-18.672001"
       y1="23.780001"
       x2="279.80499"
       y2="322.25601" />
    <linearGradient
       inkscape:collect="always"
       xlink:href="#b"
       id="linearGradient4401"
       gradientUnits="userSpaceOnUse"
       x1="-18.672001"
       y1="23.780001"
       x2="279.80499"
       y2="322.25601" />
  </defs>
  <g
     id="g4373"
     transform="translate(-31.3435,-31.933226)">
    <path
       id="path14"
       fill="#eaeaee"
       d="m 224.245,144.067 h -10.733 c 0.136,0.343 0.274,0.674 0.41,1 h 10.323 a 0.5,0.5 0 0 0 0,-1 z m 2.454,-11.821 a 0.5,0.5 0 0 0 -0.5,-0.5 h -20.26 c 0.373,0.357 0.727,0.688 1.065,1 h 19.2 a 0.5,0.5 0 0 0 0.496,-0.5 z m 8.546,11.821 h -3 a 0.5,0.5 0 1 0 0,1 h 3 a 0.5,0.5 0 0 0 0,-1 z m 5,0 h -1 a 0.5,0.5 0 1 0 0,1 h 1 a 0.5,0.5 0 0 0 0,-1 z m -3.3,-6.66 h -25.78 a 12.767,12.767 0 0 1 0.862,2 h 24.918 a 1,1 0 0 0 0,-2 z m 20.422,6.66 h -8.122 a 0.5,0.5 0 1 0 0,1 h 8.122 a 0.5,0.5 0 0 0 0,-1 z"
       inkscape:connector-curvature="0" />
    <path
       id="path16"
       fill="#fff"
       d="m 269.53,87.757 h -24.236 c -2.108,-3.9 -7.559,-12.718 -14.4,-14.023 -8.952,-1.707 -10.737,7.217 -10.737,7.217 0,0 -5.949,-15.468 -21,-13.419 -16.878,2.3 -8.928,20.065 -8.928,20.065 h -25.408 l 8.181,0.159 h -8.184 a 1,1 0 0 0 0,2 H 269.53 a 1,1 0 0 0 0,-2 z"
       inkscape:connector-curvature="0" />
    <path
       id="path18"
       fill="#fff"
       d="m 118.373,63.908 h -13.69 c -1.129,-2.112 -4.19,-7.156 -8.057,-7.894 -4.978,-0.949 -5.971,4.013 -5.971,4.013 0,0 -3.309,-8.6 -11.68,-7.462 -9.386,1.278 -4.965,11.158 -4.965,11.158 H 59.88 l 9.471,0.185 h -9.212 a 1,1 0 0 0 0,2 h 58.233 a 1,1 0 1 0 0,-2 z"
       inkscape:connector-curvature="0" />
    <ellipse
       id="ellipse20"
       fill="#eaeaee"
       ry="8.3620005"
       rx="55.042"
       cy="245.472"
       cx="143.56599" />
    <path
       id="path22"
       fill="#eaeaee"
       d="M 102.31,121.507 H 60.818 a 1,1 0 0 0 0,2 h 41.492 a 1,1 0 1 0 0,-2 z M 70.336,117.6 H 82.1 a 0.5,0.5 0 0 0 0,-1 H 70.336 a 0.5,0.5 0 0 0 0,1 z"
       inkscape:connector-curvature="0" />
    <path
       id="path24"
       fill="#eaeaee"
       d="m 111.457,174.8 h -78.3 a 1,1 0 0 0 0,2 h 78.3 a 1,1 0 1 0 0,-2 z m -26.742,-3.793 h 1 a 0.5,0.5 0 0 0 0,-1 h -1 a 0.5,0.5 0 0 0 0,1 z m 10,0 h 3.1 a 0.5,0.5 0 0 0 0,-1 h -3.1 a 0.5,0.5 0 0 0 0,1 z m -17,0 h 3 a 0.5,0.5 0 0 0 0,-1 h -3 a 0.5,0.5 0 0 0 0,1 z m -20,0 h 12 a 0.5,0.5 0 0 0 0,-1 h -12 a 0.5,0.5 0 0 0 0,1 z"
       inkscape:connector-curvature="0" />
    <path
       id="path26"
       fill="#fff"
       d="m 206.885,62.973 0.045,-0.1 c -0.058,0.027 -0.063,0.059 -0.045,0.1 z"
       inkscape:connector-curvature="0" />
    <path
       id="path28"
       fill="#eaeaee"
       d="M 77.937,214.941 H 39.95 a 1,1 0 1 1 0,-2 h 37.987 a 1,1 0 1 1 0,2 z"
       inkscape:connector-curvature="0" />
    <path
       id="path30"
       fill="#eaeaee"
       d="m 258.931,214.941 h -61.813 a 1,1 0 0 1 0,-2 h 61.813 a 1,1 0 0 1 0,2 z"
       inkscape:connector-curvature="0" />
    <path
       id="path32"
       fill="#eaeaee"
       d="m 265.745,85.333 h -3 a 0.5,0.5 0 0 1 0,-1 h 3 a 0.5,0.5 0 0 1 0,1 z m -11,0 h -8.07 a 0.5,0.5 0 0 1 -0.447,-0.277 c -0.007,-0.014 -0.724,-1.425 -1.979,-3.342 a 0.5002182,0.5002182 0 1 1 0.837,-0.548 c 0.393,0.6 1.444,2.293 1.888,3.167 h 7.772 a 0.5,0.5 0 0 1 0,1 z m -66.489,-0.712 h -3 a 0.5,0.5 0 0 1 0,-1 h 3 a 0.5,0.5 0 0 1 0,1 z m -11,0 h -12 a 0.5,0.5 0 0 1 0,-1 h 12 a 0.5,0.5 0 0 1 0,1 z M 190.1,83.13 a 0.5,0.5 0 0 1 -0.474,-0.339 c -0.1,-0.29 -0.2,-0.615 -0.31,-0.971 a 0.50003325,0.50003325 0 1 1 0.958,-0.287 c 0.1,0.343 0.2,0.657 0.3,0.937 a 0.5,0.5 0 0 1 -0.474,0.661 z m 30.5,-5.156 a 0.5,0.5 0 0 1 -0.467,-0.32 23.7,23.7 0 0 0 -2.182,-4.039 0.500065,0.500065 0 0 1 0.834,-0.552 27.291,27.291 0 0 1 1.719,2.982 10.522,10.522 0 0 1 3.679,-5.015 0.5,0.5 0 0 1 0.571,0.82 10.181,10.181 0 0 0 -3.665,5.721 0.5,0.5 0 0 1 -0.448,0.4 z m 18.345,-2.964 a 0.5,0.5 0 0 1 -0.339,-0.132 q -0.361,-0.333 -0.735,-0.651 a 0.5,0.5 0 0 1 0.647,-0.762 q 0.39,0.331 0.765,0.678 a 0.5,0.5 0 0 1 -0.339,0.868 z m -49.923,-1.725 a 0.47,0.47 0 0 1 -0.09,-0.008 0.5,0.5 0 0 1 -0.4,-0.581 c 0.792,-4.351 3.544,-7.229 8.18,-8.556 a 0.50026718,0.50026718 0 0 1 0.275,0.962 c -4.24,1.212 -6.753,3.828 -7.472,7.773 a 0.5,0.5 0 0 1 -0.499,0.411 z m 45.893,-1.218 a 0.5,0.5 0 0 1 -0.237,-0.06 12.545,12.545 0 0 0 -2.666,-1.081 0.50031915,0.50031915 0 1 1 0.261,-0.966 13.559,13.559 0 0 1 2.88,1.167 0.5,0.5 0 0 1 -0.238,0.94 z M 212.146,67.4 a 0.5,0.5 0 0 1 -0.28,-0.086 q -0.4,-0.27 -0.82,-0.524 a 0.5,0.5 0 1 1 0.516,-0.856 q 0.444,0.267 0.865,0.552 a 0.5,0.5 0 0 1 -0.281,0.914 z m -4.47,-2.2 a 0.5,0.5 0 0 1 -0.154,-0.024 16.724,16.724 0 0 0 -2.832,-0.647 0.5,0.5 0 0 1 0.137,-0.99 17.6,17.6 0 0 1 3,0.686 0.5,0.5 0 0 1 -0.154,0.976 z"
       inkscape:connector-curvature="0" />
    <path
       id="path34"
       fill="#eaeaee"
       d="m 72.315,62.052 h -12 a 0.5,0.5 0 0 1 0,-1 h 12 a 0.5,0.5 0 0 1 0,1 z m 45.582,-0.184 h -1.8 a 0.5,0.5 0 0 1 0,-1 h 1.8 a 0.5,0.5 0 0 1 0,1 z m -10.8,0 h -1 a 0.5,0.5 0 0 1 0,-1 h 1 a 0.5,0.5 0 0 1 0,1 z m -3.491,-2.881 a 0.5,0.5 0 0 1 -0.39,-0.186 18.484,18.484 0 0 0 -2,-2.129 0.5,0.5 0 0 1 0.668,-0.744 19.433,19.433 0 0 1 2.116,2.246 0.5,0.5 0 0 1 -0.389,0.814 z M 91.085,58.356 a 0.5,0.5 0 0 1 -0.466,-0.319 13.8,13.8 0 0 0 -3.857,-5.165 0.5,0.5 0 0 1 0.623,-0.782 14.47,14.47 0 0 1 3.624,4.438 5.414,5.414 0 0 1 3.111,-3.028 0.5,0.5 0 1 1 0.326,0.945 4.994,4.994 0 0 0 -2.867,3.51 0.5,0.5 0 0 1 -0.49,0.401 z M 73.448,56.319 h -0.051 a 0.5,0.5 0 0 1 -0.447,-0.548 6.454,6.454 0 0 1 1.057,-3.036 0.5,0.5 0 1 1 0.824,0.566 5.46,5.46 0 0 0 -0.886,2.571 0.5,0.5 0 0 1 -0.497,0.447 z m 4.193,-5.039 a 0.5,0.5 0 0 1 -0.151,-0.977 10.27,10.27 0 0 1 1.017,-0.264 0.5,0.5 0 0 1 0.2,0.979 9.033,9.033 0 0 0 -0.917,0.237 0.5,0.5 0 0 1 -0.148,0.025 z"
       inkscape:connector-curvature="0" />
    <path
       id="path36"
       fill="#fff"
       d="m 216.326,144.72 c -1.079,-4.2 -3.73,-8.616 -7.88,-13.117 a 84.471,84.471 0 0 0 -8.921,-9.988 5.558,5.558 0 0 0 -2.261,-1.3 c -7.177,-6.885 -21.972,-19.819 -32.5,-20.546 a 27.625,27.625 0 0 0 -1.889,-0.063 47.155,47.155 0 0 0 -15.147,2.913 l -5.114,-1.4 a 5,5 0 0 0 -6.142,3.5 l -0.969,3.545 a 68.668,68.668 0 0 0 -7.844,5.3 l -2.052,-0.048 h -0.116 a 5,5 0 0 0 -5,4.884 l -0.042,1.829 a 45.575,45.575 0 0 0 -5.648,7.656 5,5 0 0 0 -2.515,5.326 c -1.882,5.474 -2.848,13.743 -2.875,24.633 a 100.416,100.416 0 0 1 -1.646,7.791 l -4.279,2.594 a 6.312,6.312 0 0 0 -2.125,8.657 l 1.516,2.5 q -0.375,0.778 -0.761,1.518 l -4.037,1.24 a 6.312,6.312 0 0 0 -4.176,7.877 l 0.6,1.953 q -0.516,0.587 -1.038,1.143 l -1.616,-0.127 a 5.926,5.926 0 0 0 -0.5,-0.02 6.334,6.334 0 0 0 -6.277,5.8 l -0.115,1.456 c -2.741,2.043 -5.415,4.547 -5.415,9.117 0,6.528 10.272,10.568 13.648,11.9 a 68.955,68.955 0 0 0 24.224,4.781 q 0.566,0 1.127,-0.012 c 0.607,2.411 1.208,4.468 1.8,6.144 a 54.956,54.956 0 0 0 4.745,10.264 c 1.748,2.839 4.22,6.1 7.845,6.1 a 5.673,5.673 0 0 0 3.572,-1.268 c 1.746,-1.421 2.429,-3.072 2.482,-10.087 a 86.865,86.865 0 0 0 16.862,1.533 80.987,80.987 0 0 0 14.53,-1.463 c -0.215,6.82 0.472,8.55 2.275,10.017 a 5.672,5.672 0 0 0 3.571,1.268 c 5.645,0 9.953,-8.9 12.573,-16.361 a 52.867,52.867 0 0 0 1.069,-3.467 c 1.432,-3.724 4.539,-13.353 4.892,-27.476 0.161,-6.428 0,-12.95 -0.488,-19.419 a 7.56,7.56 0 0 0 1.131,-4.949 c 6.461,-1.2 10.808,-3.919 15.1,-9.34 3.4,-4.308 8,-14.308 5.826,-22.788 z"
       inkscape:connector-curvature="0" />
    <path
       id="path38"
       fill="url(#a)"
       d="m 211.476,145.947 c -1.092,-4.252 -4.261,-8.341 -6.9,-11.168 a 78.846,78.846 0 0 0 -8.482,-9.533 0.649,0.649 0 0 0 -0.907,0.018 c -10.173,-10.009 -23.029,-19.987 -30.783,-20.521 -4.534,-0.313 -10.392,0.808 -16.48,3.1 l -6.645,-1.817 -1.521,5.561 a 63.823,63.823 0 0 0 -10.4,7 l -3.884,-0.09 -0.087,3.744 a 40.534,40.534 0 0 0 -7.123,9.675 l -1.083,0.338 0.36,1.153 c -2.227,5.146 -3.144,14.255 -3.147,24.842 a 104.047,104.047 0 0 1 -2.33,10.6 l -6,3.638 a 1.452,1.452 0 0 0 -0.685,1.835 l 3.021,4.978 a 54.736,54.736 0 0 1 -2.883,5.777 l -5.979,1.836 a 1.305,1.305 0 0 0 -0.864,1.63 l 1.394,4.541 a 51.394,51.394 0 0 1 -4.691,5.189 l -3.93,-0.31 a 1.3,1.3 0 0 0 -1.4,1.2 l -0.3,3.752 c -3.258,2.357 -5.218,3.541 -5.218,6.422 0,4.144 20.8,13.416 37.9,11.39 a 88.878,88.878 0 0 0 2.615,9.761 c 2.852,8.125 6.861,14.032 8.287,12.871 0.675,-0.549 0.711,-6.554 0.562,-12.73 0.446,0.174 8.025,3.054 21.939,3.054 a 88.332,88.332 0 0 0 19.876,-2.718 c -0.4,5.844 -0.626,11.816 0.085,12.394 1.426,1.161 5.418,-4.745 8.269,-12.871 0.357,-1.018 0.7,-2.159 1.031,-3.377 1.276,-3.253 4.307,-12.338 4.649,-26.035 a 191.885,191.885 0 0 0 -0.651,-21.1 2.592,2.592 0 0 0 -0.475,-4.743 128.961,128.961 0 0 0 -0.36,-2.871 28.465,28.465 0 0 0 4.578,-0.19 c 6.147,-0.82 9.835,-2.869 13.728,-7.786 2.797,-3.536 6.551,-12.06 4.914,-18.439 z"
       inkscape:connector-curvature="0"
       style="fill:url(#a)" />
    <path
       id="path40"
       fill="#f9f9fa"
       d="m 193.99,124.155 c 0.033,0.013 0.067,0.031 0.1,0.045 -9.986,-9.641 -22.2,-18.942 -29.683,-19.457 -4.534,-0.313 -10.392,0.808 -16.48,3.1 l -6.645,-1.817 -1.521,5.561 a 63.823,63.823 0 0 0 -10.4,7 l -3.884,-0.09 -0.087,3.744 a 40.534,40.534 0 0 0 -7.123,9.675 l -1.083,0.338 0.36,1.153 c -2.227,5.146 -3.144,14.255 -3.147,24.842 a 109.944,109.944 0 0 1 -0.921,4.824 c 0.168,-0.72 0.327,-1.43 0.475,-2.127 0.061,3.039 0.177,6.023 0.332,8.836 -1.014,1.2 -4.408,5.548 -2.546,8.155 a 10.876,10.876 0 0 0 3.445,2.858 c 0.069,0.589 0.138,1.155 0.209,1.681 1.015,7.544 4.11,29 6.408,38.3 0.207,-0.021 0.417,-0.036 0.623,-0.061 a 88.878,88.878 0 0 0 2.615,9.761 c 2.852,8.125 6.861,14.032 8.287,12.871 0.675,-0.549 0.711,-6.554 0.562,-12.73 0.038,0.015 0.145,0.054 0.283,0.1 V 222.3 a 46,46 0 0 0 27.634,3.451 c 15.651,-3.043 21.467,-14.705 22.172,-22.607 1.194,-13.372 -1.415,-19.893 -1.415,-19.893 l 6.558,-2.852 c -0.011,-0.135 -0.022,-0.284 -0.034,-0.417 a 2.592,2.592 0 0 0 -0.475,-4.743 l -11.158,4.316 c 0,0 -0.109,-1.739 -2.5,-4.348 -3.174,-3.462 -10.521,-6.355 -11.428,-6.7 a 84.091,84.091 0 0 0 24.884,5.065 l -0.109,-0.839 c -10.706,-0.609 -24.216,-5.348 -24.216,-5.348 0,0 23.783,4.316 33.476,-0.761 6.847,-3.587 11.086,-13.369 9.456,-21.846 -1.731,-9.023 -13.024,-20.623 -13.024,-20.623 z"
       inkscape:connector-curvature="0" />
    <path
       id="path42"
       fill="#fff"
       d="m 149.523,146.54 -5.537,-1.957 a 1,1 0 0 0 -1.219,1.406 l 1.99,3.81 a 1,1 0 0 0 1.349,0.423 l 3.547,-1.853 a 1,1 0 0 0 -0.13,-1.829 z"
       inkscape:connector-curvature="0" />
    <g
       id="g70"
       fill="url(#b)"
       style="fill:url(#linearGradient4401)">
      <path
         id="path44"
         d="m 268.754,200.7 h -0.768 c -17.152,0 -33.29,0 -42.937,0.322 -8.333,0.277 -16.774,1.994 -16.787,4.736 -0.008,1.811 4.646,3.3 13.565,5.982 7.387,2.225 17.5,5.271 17.736,7.75 a 2.9,2.9 0 0 1 -1.2,2.046 c -2.984,2.772 -11.281,5.909 -19.089,4.588 a 25.1,25.1 0 0 1 -12.468,-6.4 c -4.383,-3.888 -6.191,-7.86 -7.786,-11.364 -0.619,-1.359 -1.2,-2.643 -1.9,-3.837 a 22.145,22.145 0 0 0 -5.357,-6.126 194.068,194.068 0 0 0 -0.6,-17.308 4.6,4.6 0 0 0 -0.2,-6.523 c 0.75,-0.036 1.463,-0.1 2.13,-0.188 6.749,-0.9 10.823,-3.211 15.032,-8.527 3.282,-4.146 7.092,-13.147 5.287,-20.18 -1.2,-4.662 -4.606,-9.055 -7.29,-11.947 a 80.769,80.769 0 0 0 -8.657,-9.724 2.62,2.62 0 0 0 -1.653,-0.713 133.306,133.306 0 0 0 -15.775,-13.264 c -6.315,-4.414 -11.527,-6.79 -15.492,-7.064 a 24.782,24.782 0 0 0 -1.683,-0.056 45.119,45.119 0 0 0 -15.027,3.055 l -6.025,-1.648 a 2,2 0 0 0 -2.457,1.4 l -1.3,4.745 a 65.633,65.633 0 0 0 -9.391,6.332 l -3.141,-0.073 h -0.047 a 2,2 0 0 0 -2,1.953 l -0.069,2.965 a 42.572,42.572 0 0 0 -6.522,8.837 l -0.3,0.093 a 2,2 0 0 0 -1.312,2.506 l 0.145,0.465 c -1.993,5.12 -3.01,13.443 -3.023,24.766 a 102.594,102.594 0 0 1 -2.05,9.47 L 105.03,171 a 3.309,3.309 0 0 0 -1.114,4.538 l 2.345,3.87 a 56.333,56.333 0 0 1 -2.1,4.209 l -5.216,1.6 a 3.309,3.309 0 0 0 -2.189,4.129 l 1.082,3.524 a 49.795,49.795 0 0 1 -3.217,3.554 l -3.023,-0.238 a 3.177,3.177 0 0 0 -0.267,-0.011 3.318,3.318 0 0 0 -3.287,3.043 l -0.223,2.83 c -2.965,2.13 -5.3,3.833 -5.3,7.5 0,2.65 3.4,5.1 6.95,6.946 a 89.372,89.372 0 0 0 -1.57,3.365 c -1.866,4.156 -3.1,6.9 -7.448,8.232 -8.459,2.584 -20.437,0.244 -26.315,-3.564 -1.825,-1.182 -2.9,-2.432 -3.041,-3.519 -0.264,-2.111 5.188,-4.187 9.167,-5.7 3.919,-1.492 6.152,-2.394 6.47,-3.56 a 1.66,1.66 0 0 0 -0.295,-1.493 C 64.48,207.69 53.977,207.22 34,207.22 a 0.5,0.5 0 0 0 0,1 c 12.5,0 29.627,0 31.645,2.642 a 0.661,0.661 0 0 1 0.125,0.623 c -0.2,0.732 -3.339,1.928 -5.861,2.888 -5,1.9 -10.165,3.871 -9.8,6.761 0.176,1.405 1.382,2.869 3.489,4.234 4.275,2.77 11.581,4.841 18.68,4.841 a 29.2,29.2 0 0 0 8.471,-1.16 c 4.784,-1.462 6.161,-4.531 8.068,-8.778 a 89.007,89.007 0 0 1 1.552,-3.326 54.676,54.676 0 0 0 3.9,1.709 65.842,65.842 0 0 0 23.126,4.572 c 1.177,0 2.336,-0.042 3.462,-0.126 a 80.823,80.823 0 0 0 2.292,8.265 c 0.516,1.469 5.171,14.354 9.759,14.354 a 2.629,2.629 0 0 0 1.678,-0.595 c 0.831,-0.677 1.5,-1.223 1.353,-11.536 a 76.69,76.69 0 0 0 19.885,2.308 86.392,86.392 0 0 0 17.71,-2.167 c -0.585,10.114 0.149,10.711 0.989,11.395 a 2.628,2.628 0 0 0 1.677,0.595 c 4.572,0 9.226,-12.885 9.742,-14.354 0.347,-0.989 0.7,-2.137 1.046,-3.412 1.345,-3.458 4.4,-12.766 4.747,-26.612 0.014,-0.552 0.01,-1.108 0.019,-1.662 a 20.857,20.857 0 0 1 4.507,5.34 c 0.668,1.152 1.242,2.415 1.851,3.751 1.636,3.595 3.491,7.669 8.032,11.7 a 26.054,26.054 0 0 0 12.965,6.641 24.08,24.08 0 0 0 4.006,0.325 c 6.5,0 12.949,-2.4 15.93,-5.166 a 3.735,3.735 0 0 0 1.514,-2.872 c -0.274,-2.93 -7.481,-5.313 -18.444,-8.614 -5.427,-1.634 -12.859,-3.872 -12.854,-5.02 0.006,-1.314 5.643,-3.4 15.82,-3.742 9.631,-0.321 25.785,-0.326 42.9,-0.321 h 0.768 a 0.5,0.5 0 0 0 0,-1 z M 204.579,135 c 2.636,2.827 5.805,6.916 6.9,11.168 1.637,6.379 -2.117,14.9 -4.918,18.441 -3.893,4.918 -7.581,6.967 -13.728,7.786 -0.7,0.093 -1.432,0.142 -2.179,0.172 a 0.988,0.988 0 0 0 -0.354,-0.077 73.652,73.652 0 0 1 -26.1,-5.54 1,1 0 0 0 -0.826,1.821 74.46,74.46 0 0 0 25.115,5.664 c 0.039,0.323 0.08,0.659 0.121,1.021 a 2.579,2.579 0 0 1 1.39,3.874 0.484,0.484 0 0 0 -0.243,0.11 c -1.838,1.634 -8.407,3.132 -8.474,3.146 a 0.5,0.5 0 0 0 -0.113,0.041 l -2.2,1.1 a 0.5,0.5 0 0 0 -0.274,0.5 c 0.006,0.061 0.561,6.134 -2.275,8.973 a 5.1,5.1 0 0 1 -3.97,1.438 l 0.82,-4.449 a 0.5,0.5 0 0 0 -0.383,-0.579 l -2.605,-0.579 c -0.139,-1 -0.37,-4.182 1.943,-5.917 0.976,-0.731 8.157,-3.579 10.842,-4.614 a 0.5,0.5 0 0 0 -0.359,-0.933 c -1,0.386 -9.818,3.8 -11.082,4.747 -3.262,2.447 -2.312,7.043 -2.27,7.237 a 0.492,0.492 0 0 0 0.107,0.2 q -1.276,-0.217 -2.6,-0.406 c -0.048,-1.62 -0.626,-3.782 -2.151,-4.88 a 3.922,3.922 0 0 0 -3.715,-0.379 0.507,0.507 0 0 0 -0.086,0.039 5.413,5.413 0 0 0 -2.65,4.454 c 0,2.46 1.4,5.3 3.473,5.614 a 5.187,5.187 0 0 0 0.772,0.059 4.147,4.147 0 0 0 2.763,-1 4.691,4.691 0 0 0 1.526,-2.9 q 2.748,0.39 5.267,0.9 l -0.694,3.765 a 0.5,0.5 0 0 0 0.444,0.588 q 0.446,0.043 0.87,0.043 a 6.04,6.04 0 0 0 4.449,-1.735 6.78,6.78 0 0 0 0.928,-1.172 40.237,40.237 0 0 1 11.732,5.419 q -0.012,1.546 -0.051,3.143 c -0.342,13.7 -3.374,22.782 -4.649,26.035 a 48.73,48.73 0 0 1 -1.031,3.377 c -2.611,7.438 -6.177,13.017 -7.855,13.017 a 0.639,0.639 0 0 1 -0.415,-0.146 c -0.669,-0.545 -0.51,-5.868 -0.153,-11.366 a 19.327,19.327 0 0 0 5.9,-3.617 0.50102121,0.50102121 0 0 0 -0.717,-0.7 18.885,18.885 0 0 1 -5.594,3.4 87.371,87.371 0 0 1 -19.4,2.607 c -11.281,0 -18.4,-1.892 -20.923,-2.7 l -0.26,-6.109 a 0.50046204,0.50046204 0 1 0 -1,0.043 l 0.243,5.714 c 0.149,6.176 0.113,12.181 -0.562,12.73 a 0.639,0.639 0 0 1 -0.415,0.146 c -1.681,0 -5.261,-5.579 -7.872,-13.017 a 88.882,88.882 0 0 1 -2.615,-9.761 h -0.005 c -2.551,-10.248 -4.636,-21.971 -4.657,-22.089 a 0.5,0.5 0 1 0 -0.984,0.175 c 0.021,0.118 2.091,11.756 4.633,22 -1.324,0.122 -2.662,0.2 -4.013,0.2 a 63.607,63.607 0 0 1 -26.1,-6.059 44.608,44.608 0 0 1 6.949,-9.4 c 9.072,-9.555 18.343,-13.569 25.331,-15.21 a 6.619,6.619 0 0 0 2.526,3.172 5.232,5.232 0 0 0 2.774,0.9 4.77,4.77 0 0 0 3.579,-1.983 0.5,0.5 0 0 0 0.052,-0.57 l -1.467,-2.574 q 2.151,-0.118 4.317,-0.032 c 1.077,3.689 5.807,4.056 5.858,4.06 h 0.033 a 0.5,0.5 0 0 0 0.464,-0.314 8.392,8.392 0 0 0 0.432,-1.968 h 2.691 a 0.5,0.5 0 1 0 0,-1 h -2.606 a 18.073,18.073 0 0 0 -0.152,-3.239 h 2.437 a 0.5,0.5 0 0 0 0,-1 h -2.593 a 24.74,24.74 0 0 0 -0.512,-2.243 0.5,0.5 0 0 0 -0.564,-0.359 11.053,11.053 0 0 0 -3,1.03 c -1.867,0.989 -2.77,2.376 -2.658,4.025 a 46.151,46.151 0 0 0 -4.689,0.068 l -0.048,-0.084 2.933,-0.3 a 0.5,0.5 0 0 0 0.449,-0.484 c 0.005,-0.2 0.1,-4.931 -2.952,-6.689 -1.677,-0.968 -11.4,-4.872 -11.818,-5.037 a 0.5,0.5 0 0 0 -0.372,0.928 c 0.1,0.041 10.074,4.043 11.69,4.976 2.05,1.183 2.388,4.223 2.442,5.359 l -3.237,0.333 a 0.5,0.5 0 0 0 -0.383,0.745 l 2.271,3.988 c -1.076,1.186 -2.506,2.067 -4.831,0.615 -3.425,-2.138 -3.069,-8.563 -3.019,-9.262 0,-0.022 0.005,-0.044 0,-0.066 v -0.007 a 0.5,0.5 0 0 0 -0.052,-0.266 0.985,0.985 0 0 0 -0.548,-0.63 c -0.037,-0.016 -3.859,-1.7 -7.521,-3.205 -3.062,-1.261 -3.5,-3.464 -3.524,-3.584 a 1,1 0 0 0 -1.975,0.313 c 0.021,0.138 0.568,3.4 4.738,5.121 3.645,1.5 7.452,3.176 7.488,3.191 0.056,0.024 0.2,0.091 0.35,0.158 a 17.069,17.069 0 0 0 0.664,4.966 c -7.122,1.693 -16.53,5.791 -25.719,15.47 a 45.518,45.518 0 0 0 -7.118,9.64 c -3.625,-1.887 -5.88,-3.8 -5.88,-5.166 0,-2.882 1.96,-4.065 5.218,-6.422 l 0.3,-3.752 a 1.306,1.306 0 0 1 1.293,-1.2 h 0.11 l 2.534,0.2 a 15.544,15.544 0 0 1 -1.922,1.463 0.50023644,0.50023644 0 0 0 0.545,0.839 15.693,15.693 0 0 0 2.715,-2.2 h 0.058 a 51.394,51.394 0 0 0 4.691,-5.189 l -1.394,-4.541 a 1.305,1.305 0 0 1 0.864,-1.63 l 4.352,-1.336 -1.57,2.34 a 0.500066,0.500066 0 1 0 0.83,0.558 l 2.256,-3.363 0.111,-0.034 a 59.576,59.576 0 0 0 3,-6.032 l -2.884,-4.76 a 1.305,1.305 0 0 1 0.439,-1.792 l 4.593,-2.784 -0.9,2.5 a 0.5,0.5 0 0 0 0.941,0.338 l 1.316,-3.665 0.051,-0.031 c 0.038,-0.137 0.069,-0.27 0.106,-0.406 l 0.078,-0.218 a 0.5,0.5 0 0 0 0.027,-0.185 105.18,105.18 0 0 0 2.119,-9.789 c 0,-9.717 0.779,-18.179 2.627,-23.484 l 0.683,1.709 a 0.50017047,0.50017047 0 0 0 0.929,-0.371 l -1.144,-2.862 -0.308,-0.986 1.083,-0.338 a 39.766,39.766 0 0 1 6.223,-8.725 12.852,12.852 0 0 0 0.241,1.72 0.5,0.5 0 0 0 0.629,0.315 0.5,0.5 0 0 0 0.32,-0.631 24.71,24.71 0 0 1 -0.287,-2.484 l 0.084,-3.613 3.884,0.09 a 63.833,63.833 0 0 1 10.4,-7 l 1.521,-5.561 5.138,1.405 -2.527,1.118 a 0.5,0.5 0 1 0 0.409,0.912 l 3.7,-1.659 a 44.04,44.04 0 0 1 14.851,-3.124 q 0.8,0 1.545,0.052 c 7.754,0.535 20.609,10.512 30.783,20.521 a 0.655,0.655 0 0 1 0.465,-0.193 0.639,0.639 0 0 1 0.442,0.176 m 0,0 a 78.848,78.848 0 0 1 8.484,9.535 m -14.79,61.935 a 42.035,42.035 0 0 0 -11.248,-5.1 15.357,15.357 0 0 0 1.207,-6.3 0.955,0.955 0 0 0 0.1,0.016 0.989,0.989 0 0 0 0.292,-0.044 l 9.149,-2.784 c 0.288,4.005 0.511,8.839 0.5,14.208 z"
         inkscape:connector-curvature="0"
         style="fill:url(#linearGradient4375)" />
      <path
         id="path46"
         d="m 193.225,139.669 a 1.412,1.412 0 0 0 1.41,-1.41 V 135.1 a 1.4105,1.4105 0 0 0 -2.821,0 v 3.162 a 1.412,1.412 0 0 0 1.411,1.407 z"
         inkscape:connector-curvature="0"
         style="fill:url(#linearGradient4377)" />
      <path
         id="path48"
         d="m 193.225,144.475 a 5.736,5.736 0 0 0 4.644,-2.413 1.0003481,1.0003481 0 1 0 -1.679,-1.088 3.76,3.76 0 0 1 -2.965,1.5 3.71,3.71 0 0 1 -2.969,-1.506 1.0003076,1.0003076 0 0 0 -1.675,1.094 5.736,5.736 0 0 0 4.644,2.413 z"
         inkscape:connector-curvature="0"
         style="fill:url(#linearGradient4379)" />
      <path
         id="path50"
         d="m 163.852,142.719 a 1,1 0 0 0 1.674,-1.094 5.674,5.674 0 0 0 -9.286,0 1.0001626,1.0001626 0 0 0 1.674,1.095 3.679,3.679 0 0 1 5.938,0 z"
         inkscape:connector-curvature="0"
         style="fill:url(#linearGradient4381)" />
      <path
         id="path52"
         d="m 159.473,135.1 v 3.162 c 0,0.036 0.008,0.07 0.011,0.106 a 6.569,6.569 0 0 1 2.8,0 c 0,-0.036 0.011,-0.07 0.011,-0.106 V 135.1 a 1.4105,1.4105 0 1 0 -2.821,0 z"
         inkscape:connector-curvature="0"
         style="fill:url(#linearGradient4383)" />
      <path
         id="path54"
         d="m 160.912,130.086 a 5.733,5.733 0 0 0 4.643,-2.412 1.0001626,1.0001626 0 0 0 -1.674,-1.095 3.679,3.679 0 0 1 -5.937,0 1,1 0 0 0 -1.674,1.094 5.733,5.733 0 0 0 4.642,2.413 z"
         inkscape:connector-curvature="0"
         style="fill:url(#linearGradient4385)" />
      <path
         id="path56"
         d="m 155.934,155.646 a 18.515,18.515 0 0 0 -4.51,-8.323 c -5.144,-5.145 -12.507,-4.867 -12.817,-4.857 a 1.0009896,1.0009896 0 0 0 0.089,2 16.68,16.68 0 0 1 3.159,0.279 18.431,18.431 0 0 0 1.1,3.47 6.118,6.118 0 0 0 -1.562,0.513 7.174,7.174 0 0 0 -2.41,2.27 0.5,0.5 0 1 0 0.84,0.542 6.254,6.254 0 0 1 2.014,-1.917 5.319,5.319 0 0 1 1.6,-0.478 4.113,4.113 0 0 0 0.928,1.091 6.669,6.669 0 0 0 -0.955,2.347 7.171,7.171 0 0 0 0.372,3.29 0.5,0.5 0 0 0 0.469,0.326 0.494,0.494 0 0 0 0.174,-0.031 0.5,0.5 0 0 0 0.295,-0.643 6.214,6.214 0 0 1 -0.326,-2.76 5.734,5.734 0 0 1 0.894,-2.1 2.673,2.673 0 0 0 0.474,0.054 9.686,9.686 0 0 0 4.458,-1.746 16.947,16.947 0 0 1 3.75,7.1 1.000292,1.000292 0 0 0 1.956,-0.42 z m -10.821,-6.082 c -1.027,-0.642 -1.8,-3.029 -2.178,-4.592 a 15.045,15.045 0 0 1 6.547,3.285 c -1.517,0.943 -3.507,1.843 -4.37,1.307 z"
         inkscape:connector-curvature="0"
         style="fill:url(#linearGradient4387)" />
      <path
         id="path58"
         d="m 193.839,116.06 a 1,1 0 0 0 0.71,-0.3 l 2.533,-2.554 a 1,1 0 1 0 -1.42,-1.408 l -2.533,2.554 a 1,1 0 0 0 0.71,1.7 z"
         inkscape:connector-curvature="0"
         style="fill:url(#linearGradient4389)" />
      <path
         id="path60"
         d="m 199.708,117.691 a 1,1 0 0 0 0.409,-0.088 l 3.512,-1.576 a 1,1 0 0 0 -0.818,-1.825 l -3.512,1.576 a 1,1 0 0 0 0.41,1.913 z"
         inkscape:connector-curvature="0"
         style="fill:url(#linearGradient4391)" />
      <path
         id="path62"
         d="m 193.882,183.558 a 0.5,0.5 0 0 0 0.106,0.988 0.487,0.487 0 0 0 0.105,-0.011 5.176,5.176 0 0 0 3,-7.9 0.50013248,0.50013248 0 0 0 -0.807,0.591 4.178,4.178 0 0 1 -2.41,6.327 z"
         inkscape:connector-curvature="0"
         style="fill:url(#linearGradient4393)" />
      <path
         id="path64"
         d="m 195.435,187.387 a 0.487,0.487 0 0 0 0.105,-0.011 7.781,7.781 0 0 0 4.512,-11.856 0.50013248,0.50013248 0 1 0 -0.807,0.591 6.884,6.884 0 0 1 0.676,6.146 6.8,6.8 0 0 1 -4.593,4.142 0.5,0.5 0 0 0 0.105,0.989 z"
         inkscape:connector-curvature="0"
         style="fill:url(#linearGradient4395)" />
      <path
         id="path66"
         d="m 127.087,198.745 a 5.134,5.134 0 0 0 1.54,0.239 5.254,5.254 0 0 0 3.143,-1.063 0.5000525,0.5000525 0 0 0 -0.637,-0.771 4.178,4.178 0 0 1 -6.463,-2.021 0.5,0.5 0 0 0 -0.962,0.271 5.206,5.206 0 0 0 3.379,3.345 z"
         inkscape:connector-curvature="0"
         style="fill:url(#linearGradient4397)" />
      <path
         id="path68"
         d="m 132.43,200.03 a 6.783,6.783 0 0 1 -10.508,-3.284 0.50006725,0.50006725 0 0 0 -0.963,0.27 7.773,7.773 0 0 0 12.108,3.785 0.50037111,0.50037111 0 0 0 -0.638,-0.771 z"
         inkscape:connector-curvature="0"
         style="fill:url(#linearGradient4399)" />
    </g>
    <g
       id="g76"
       fill="#f9f9fa">
      <path
         id="path72"
         d="m 160.366,188.859 a 0.5,0.5 0 0 1 -0.43,-0.754 l 1.345,-2.283 a 0.5,0.5 0 1 1 0.861,0.508 l -1.345,2.283 a 0.5,0.5 0 0 1 -0.431,0.246 z"
         inkscape:connector-curvature="0" />
      <path
         id="path74"
         d="m 161.086,192.527 a 0.5,0.5 0 0 1 -0.43,-0.754 L 162,189.491 a 0.5,0.5 0 1 1 0.861,0.508 l -1.345,2.282 a 0.5,0.5 0 0 1 -0.43,0.246 z"
         inkscape:connector-curvature="0" />
    </g>
  </g>
</svg>
