<?xml version="1.0" encoding="UTF-8" standalone="no"?>
<svg
   xmlns:dc="http://purl.org/dc/elements/1.1/"
   xmlns:cc="http://creativecommons.org/ns#"
   xmlns:rdf="http://www.w3.org/1999/02/22-rdf-syntax-ns#"
   xmlns:svg="http://www.w3.org/2000/svg"
   xmlns="http://www.w3.org/2000/svg"
   xmlns:sodipodi="http://sodipodi.sourceforge.net/DTD/sodipodi-0.dtd"
   xmlns:inkscape="http://www.inkscape.org/namespaces/inkscape"
   id="Layer_1"
   viewBox="0 0 18 18"
   version="1.1"
   sodipodi:docname="feedback.svg"
   inkscape:version="0.92.1 r">
  <metadata
     id="metadata11">
    <rdf:RDF>
      <cc:Work
         rdf:about="">
        <dc:format>image/svg+xml</dc:format>
        <dc:type
           rdf:resource="http://purl.org/dc/dcmitype/StillImage" />
      </cc:Work>
    </rdf:RDF>
  </metadata>
  <defs
     id="defs9" />
  <sodipodi:namedview
     pagecolor="#ffffff"
     bordercolor="#666666"
     borderopacity="1"
     objecttolerance="10"
     gridtolerance="10"
     guidetolerance="10"
     inkscape:pageopacity="0"
     inkscape:pageshadow="2"
     inkscape:window-width="1058"
     inkscape:window-height="776"
     id="namedview7"
     showgrid="false"
     inkscape:zoom="13.111111"
     inkscape:cx="10.105932"
     inkscape:cy="9"
     inkscape:window-x="0"
     inkscape:window-y="27"
     inkscape:window-maximized="0"
     inkscape:current-layer="Layer_1" />
  <style
     id="style2">
        .st0{fill:#fff}
    </style>
  <path
     class="st0"
     d="M9 0C4 0 0 4 0 9s4 9 9 9 9-4 9-9-4-9-9-9zm4.4 10.4c-.5.6-1.1 1-1.9 1.3-.8.3-1.6.5-2.6.5-.4 0-.8 0-1.3-.1-.6.4-1.3.7-2 .9-.2 0-.4.1-.6.1-.1 0-.1 0-.1-.1 0 0-.1-.1-.1-.2l.2-.2c.1-.1.1-.2.2-.2 0-.1.1-.1.2-.2s.1-.2.2-.3.1-.2.1-.3c-.6-.3-1.1-.8-1.4-1.3s-.5-1-.5-1.6c0-.7.2-1.3.7-1.9s1.1-1 1.9-1.3c.8-.5 1.7-.7 2.6-.7s1.8.2 2.6.5 1.4.8 1.9 1.3c.5.6.7 1.2.7 1.9s-.3 1.3-.8 1.9z"
     id="path4"
     style="fill:#808080;fill-opacity:1" />
</svg>
