<svg width="20" height="20" xmlns="http://www.w3.org/2000/svg"><path d="M14.903 11.55c-.503.633-1.191 1.133-2.062 1.5-.87.367-1.818.55-2.842.55-.461 0-.931-.042-1.414-.128A6.749 6.749 0 0 1 6.35 14.5a6.958 6.958 0 0 1-.69.13h-.025a.252.252 0 0 1-.165-.065.262.262 0 0 1-.092-.169.162.162 0 0 1-.009-.051c0-.02.003-.038.005-.053a.16.16 0 0 1 .016-.048l.02-.04.028-.045a.818.818 0 0 1 .03-.043s.017-.007.038-.037l.032-.042.186-.195c.096-.103.166-.181.209-.238l.18-.233c.078-.098.145-.203.2-.309a4.38 4.38 0 0 0 .166-.353c-.664-.386-1.187-.86-1.568-1.423-.38-.564-.57-1.164-.57-1.801 0-.745.253-1.433.755-2.065.504-.633 1.191-1.133 2.063-1.5.87-.367 1.818-.55 2.84-.55 1.024 0 1.972.183 2.842.55.87.367 1.559.867 2.062 1.5.503.632.756 1.32.756 2.065 0 .746-.253 1.434-.756 2.066M10 0C4.478 0 0 4.477 0 10c0 5.522 4.478 10 10 10s10-4.478 10-10c0-5.523-4.478-10-10-10" fill="#FFF" fill-rule="evenodd" opacity=".5"/></svg>
