<svg width="20" height="20" xmlns="http://www.w3.org/2000/svg"><path d="M13.163 19.983c-.507.094-.676-.226-.676-.494v-2.816c0-.961-.313-1.575-.677-1.896 2.226-.253 4.57-1.121 4.57-5.06 0-1.12-.39-2.04-1.028-2.748.104-.268.442-1.309-.106-2.723C14.413 3.978 12.5 5.3 12.5 5.3a9.237 9.237 0 0 0-2.5-.347 9.23 9.23 0 0 0-2.5.347S5.586 3.978 4.74 4.246C4.206 5.66 4.544 6.7 4.648 6.969 4.01 7.676 3.62 8.596 3.62 9.718c0 3.925 2.33 4.806 4.557 5.06-.287.267-.546.708-.638 1.375-.573.266-2.032.72-2.904-.855-.547-.974-1.536-1.054-1.536-1.054-.976-.013-.064.627-.064.627.65.307 1.105 1.495 1.105 1.495.586 1.829 3.373 1.215 3.373 1.215 0 .854.014 1.668.014 1.908 0 .268-.183.588-.69.494C2.865 18.622 0 14.777 0 10.253 0 4.592 4.48 0 10 0s10 4.592 10 10.252c0 4.525-2.865 8.37-6.837 9.731" fill="#FFF" fill-rule="evenodd" opacity=".5"/></svg>