<?xml version="1.0" encoding="UTF-8"?>
<svg width="20px" height="20px" viewBox="0 0 20 20" version="1.1" xmlns="http://www.w3.org/2000/svg" xmlns:xlink="http://www.w3.org/1999/xlink">
    <!-- Generator: Sketch 43.1 (39012) - http://www.bohemiancoding.com/sketch -->
    <title>icons / legal</title>
    <desc>Created with Sketch.</desc>
    <defs></defs>
    <g id="Symbols" stroke="none" stroke-width="1" fill="none" fill-rule="evenodd">
        <g id="icons-/-legal" fill="#808080">
            <path d="M15.9789388,6.91014519 L9.08438549,14.9723075 C9.04896827,15.0123183 8.99852555,15.0312707 8.94808283,15.0270591 C8.91588536,15.0239003 8.88476113,15.0123183 8.8579299,14.9902071 L4.2676428,11.2112988 C4.2000281,11.1565473 4.1914421,11.0586263 4.24725107,10.9922927 L5.66715984,9.33290026 C5.7229688,9.26761959 5.82278098,9.25919628 5.89039569,9.31500072 L8.67011128,11.6029828 L14.0449436,5.31919217 C14.1018258,5.25285859 14.201638,5.24443528 14.2681794,5.29918681 L15.9596203,6.692192 C16.027235,6.74694353 16.035821,6.84486453 15.9789388,6.91014519 M10.0005366,0 C4.47759592,0 0,4.47759592 0,9.99946338 C0,15.5224041 4.47759592,20 10.0005366,20 C15.5234773,20 20,15.5224041 20,9.99946338 C20,4.47759592 15.5234773,0 10.0005366,0" id="Legal"></path>
        </g>
    </g>
</svg>