<svg width="20" height="20" xmlns="http://www.w3.org/2000/svg"><path d="M17.715 10.875L15.41 13.16a.652.652 0 0 0-.176.45c0 .169.059.318.176.449a.89.89 0 0 0 .215.127.605.605 0 0 0 .234.048.605.605 0 0 0 .235-.048.89.89 0 0 0 .215-.127L20 10.269 16.309 6.48a.617.617 0 0 0-.45-.195.617.617 0 0 0-.449.195.596.596 0 0 0-.176.44c0 .176.059.322.176.44l2.266 2.265H6.895a.608.608 0 0 0-.45.176.608.608 0 0 0-.175.449.617.617 0 0 0 .625.625h10.82zM1.25.25C.911.25.618.37.371.611S0 1.148 0 1.5V19c0 .352.124.648.371.889.247.24.54.361.879.361h10.625c.352 0 .648-.12.889-.361.24-.241.361-.537.361-.889v-5.645h-1.25v4.883a.733.733 0 0 1-.225.537.733.733 0 0 1-.537.225H2.012a.701.701 0 0 1-.528-.225.75.75 0 0 1-.214-.537l.02-15.976a.75.75 0 0 1 .214-.537.701.701 0 0 1 .527-.225h9.082c.209 0 .388.075.537.225.15.15.225.328.225.537v4.863h1.25V1.5c0-.352-.12-.648-.361-.889a1.208 1.208 0 0 0-.889-.361H1.25z" fill="#FFF" fill-rule="evenodd"/></svg>
