<?xml version="1.0" encoding="utf-8"?>
<!-- Generator: Adobe Illustrator 28.0.0, SVG Export Plug-In . SVG Version: 6.00 Build 0)  -->
<svg version="1.1" id="Layer_1" xmlns="http://www.w3.org/2000/svg" xmlns:xlink="http://www.w3.org/1999/xlink" x="0px" y="0px"
	 viewBox="0 0 703.5 147" style="enable-background:new 0 0 703.5 147;" xml:space="preserve">
<style type="text/css">
	.st0{fill:#FFFFFF;}
</style>
<g>
	<path d="M54.6,0l18.7,92H80L98.7,0h54.6v144.9h-29.8V25.4h-6.7l-26,119.5H62.6l-26-119.5h-6.7v119.5H0V0H54.6z M225.7,30.7
		c34.4,0,54.4,20.6,54.4,58.2c0,37.6-19.9,58.2-54.4,58.2s-54.4-20.6-54.4-58.2C171.4,51.2,191.3,30.7,225.7,30.7z M225.7,123.9
		c15.5,0,22.9-8.4,22.9-26.9V80.6c0-18.5-7.3-26.9-22.9-26.9s-22.9,8.4-22.9,26.9V97C202.9,115.5,210.2,123.9,225.7,123.9z
		 M292.3,123.3l56.9-68.9h-56.1V32.8h91.6v21.6l-56.9,68.9h57.7v21.6h-93.2V123.3z M401.1,32.8h42v112.1h-29.8V54.4h-12.2V32.8z
		 M413.3,0h29.8v21.6h-29.8V0z M462.8,0h42v144.9H475V21.6h-12.2V0z M524.6,0h42v144.9h-29.8V21.6h-12.2V0z M630.6,30.7
		c16.6,0,27.5,8.2,30.7,22.5h6.7V32.8h35.5v21.6h-12.2v68.9h12.2v21.6h-17c-12,0-18.5-6.5-18.5-18.5v-1.9h-6.7
		c-3.2,14.3-14.1,22.5-30.7,22.5c-26.2,0-44.7-22.3-44.7-58.2C585.9,52.9,604.4,30.7,630.6,30.7z M639.4,123.9
		c15.1,0,22-8.4,22-26.9V80.6c0-18.5-6.9-26.9-22-26.9c-15.1,0-22,8.4-22,26.9V97C617.4,115.5,624.3,123.9,639.4,123.9z"/>
</g>
</svg>
