<?xml version="1.0" encoding="UTF-8"?>
<svg width="20px" height="20px" viewBox="0 0 20 20" version="1.1" xmlns="http://www.w3.org/2000/svg" xmlns:xlink="http://www.w3.org/1999/xlink">
    <!-- Generator: Sketch 43.1 (39012) - http://www.bohemiancoding.com/sketch -->
    <title>icons / privacy</title>
    <desc>Created with Sketch.</desc>
    <defs></defs>
    <g id="Symbols" stroke="none" stroke-width="1" fill="none" fill-rule="evenodd">
        <g id="icons-/-privacy" fill="#808080">
            <g id="Privacy">
                <path d="M10,0 C15.5232371,0 20,4.47783621 20,10 C20,15.5232371 15.5232371,20 10,20 C4.47676291,20 0,15.5232371 0,10 C0,4.47783621 4.47676291,0 10,0 Z M14.2105263,14.8084211 L14.2105263,8.49263158 L13.1231579,8.49263158 L13.1231579,7.33157895 C13.1231579,5.61157895 11.7221053,4.21052632 10,4.21052632 C8.27894737,4.21052632 6.87789474,5.61157895 6.87789474,7.33157895 L6.87789474,8.49263158 L5.78947368,8.49263158 L5.78947368,14.8084211 L14.2105263,14.8084211 Z M10,5.57947368 C10.9673684,5.57947368 11.7536842,6.36578947 11.7536842,7.33210526 L11.7536842,8.49315789 L8.24736842,8.49315789 L8.24736842,7.33210526 C8.24736842,6.36578947 9.03368421,5.57947368 10,5.57947368 Z" id="Combined-Shape"></path>
            </g>
        </g>
    </g>
</svg>