<svg width="18" height="18" xmlns="http://www.w3.org/2000/svg"><path d="M17.842 17.158a.537.537 0 0 1 .158.396c0 .158-.053.29-.158.395a.556.556 0 0 1-.404.176.556.556 0 0 1-.405-.176l-5.449-5.484c-.621.539-1.324.96-2.11 1.265a6.838 6.838 0 0 1-2.495.457 6.847 6.847 0 0 1-2.743-.553 7.208 7.208 0 0 1-2.24-1.503A6.909 6.909 0 0 1 .491 9.898a6.942 6.942 0 0 1-.545-2.742c0-.972.182-1.886.545-2.742.363-.855.864-1.6 1.503-2.232A7.208 7.208 0 0 1 4.236.679 6.847 6.847 0 0 1 6.98.125c.96 0 1.869.185 2.724.554.856.369 1.603.87 2.241 1.503a7.027 7.027 0 0 1 1.512 2.232c.37.856.554 1.77.554 2.742 0 .856-.147 1.667-.44 2.435a7.299 7.299 0 0 1-1.195 2.065l5.467 5.502zM6.979 13.08c.808 0 1.573-.155 2.293-.466a5.9 5.9 0 0 0 1.881-1.274 6.11 6.11 0 0 0 1.266-1.881c.31-.715.466-1.482.466-2.303 0-.82-.156-1.588-.466-2.302a6.11 6.11 0 0 0-1.266-1.881 5.9 5.9 0 0 0-1.88-1.275 5.735 5.735 0 0 0-2.294-.466c-.82 0-1.591.156-2.312.466a5.9 5.9 0 0 0-1.88 1.275 6.11 6.11 0 0 0-1.266 1.88 5.716 5.716 0 0 0-.466 2.303c0 .82.155 1.588.466 2.303a6.11 6.11 0 0 0 1.265 1.88 5.9 5.9 0 0 0 1.881 1.275c.72.31 1.491.466 2.312.466z" fill="#000" fill-rule="evenodd"/></svg>
