<svg xmlns="http://www.w3.org/2000/svg" width="18" height="18"><path d="M18 16.908l-5.31-5.316a7.116 7.116 0 0 0 1.56-4.458C14.25 3.192 11.058 0 7.125 0 3.187 0 0 3.197 0 7.134c0 3.938 3.192 7.135 7.125 7.135a7.096 7.096 0 0 0 4.477-1.585L16.908 18zM2.616 11.653A6.339 6.339 0 0 1 .75 7.14c0-1.706.666-3.31 1.866-4.514A6.337 6.337 0 0 1 7.125.75a6.34 6.34 0 0 1 4.51 1.87A6.339 6.339 0 0 1 13.5 7.134c0 1.707-.666 3.31-1.866 4.514a6.34 6.34 0 0 1-4.509 1.87 6.315 6.315 0 0 1-4.51-1.865z" fill="#fff"/></svg>
