<svg width="20" height="20" xmlns="http://www.w3.org/2000/svg"><path d="M18.75 8.355c.3.053.583.199.85.44.267.24.4.537.4.889v1.25a.99.99 0 0 1-.4.82c-.267.208-.55.351-.85.43l-1.621.39a9.12 9.12 0 0 1-.205.557 5.344 5.344 0 0 1-.244.517l.86 1.446c.168.26.272.56.312.898.039.339-.066.632-.313.88l-.879.878a1.129 1.129 0 0 1-.898.342 1.84 1.84 0 0 1-.918-.283l-1.406-.899c-.183.091-.365.176-.547.254-.183.078-.378.15-.586.215L11.953 19c-.052.3-.198.583-.44.85-.24.267-.536.4-.888.4h-1.25a.99.99 0 0 1-.82-.4 2.332 2.332 0 0 1-.43-.85l-.39-1.602a8.002 8.002 0 0 1-.626-.224 6.421 6.421 0 0 1-.605-.283l-1.445.918c-.248.169-.55.263-.909.283a1.084 1.084 0 0 1-.888-.342l-.899-.879a1.047 1.047 0 0 1-.293-.879c.04-.338.137-.638.293-.898l.918-1.524a10.757 10.757 0 0 1-.224-.478 4.038 4.038 0 0 1-.186-.518l-1.621-.39a2.332 2.332 0 0 1-.85-.43.99.99 0 0 1-.4-.82v-1.25c0-.352.133-.648.4-.89.267-.24.55-.386.85-.439l1.602-.351c.052-.182.117-.365.195-.547.078-.182.156-.358.234-.527l-.918-1.524a2.218 2.218 0 0 1-.293-.898c-.039-.339.059-.632.293-.88l.899-.878c.234-.247.53-.361.888-.342.358.02.661.114.909.283l1.445.918a7.1 7.1 0 0 1 1.21-.507L8.126 1.5c.065-.3.202-.583.41-.85.208-.267.488-.4.84-.4h1.25c.352 0 .645.133.879.4.234.267.384.544.45.83l.35 1.641a8.71 8.71 0 0 1 1.133.469l1.407-.899c.26-.169.566-.263.918-.283.351-.02.65.095.898.342l.88.879c.246.247.35.54.312.879-.04.338-.144.638-.313.898l-.86 1.446c.092.182.18.367.264.556.085.189.153.388.205.596l1.602.351zm0 2.48l.02-1.112a.687.687 0 0 0-.098-.069.521.521 0 0 0-.176-.068l-2.324-.527-.215-.684a3.298 3.298 0 0 0-.156-.469 5.478 5.478 0 0 0-.235-.488l-.312-.625 1.23-2.05a.632.632 0 0 0 .088-.157.374.374 0 0 0 .03-.117l-.82-.801a.464.464 0 0 0-.255.078l-2.011 1.29-.645-.333a15.34 15.34 0 0 0-.469-.224 2.539 2.539 0 0 0-.488-.167l-.684-.234-.507-2.363a.575.575 0 0 0-.059-.147l-.039-.068H9.473a.454.454 0 0 0-.078.117.694.694 0 0 0-.06.196L8.77 4.078l-.665.215c-.169.052-.338.114-.507.186-.17.071-.339.153-.508.244l-.645.332-2.09-1.328-.097-.05a.895.895 0 0 0-.117-.048l-.82.82c0 .04.01.085.029.137.02.052.048.11.087.176l1.27 2.11-.312.605c-.079.169-.147.325-.206.468a3.72 3.72 0 0 0-.146.43l-.215.684-2.363.527a.716.716 0 0 0-.127.059.265.265 0 0 1-.088.039v1.152a.327.327 0 0 0 .117.068c.052.02.117.036.196.05l2.285.585.215.664c.039.13.087.264.146.4.059.137.127.277.205.42l.293.606-1.27 2.129a.632.632 0 0 0-.087.156.398.398 0 0 0-.03.137l.82.8c.04 0 .082-.01.128-.029a.787.787 0 0 0 .127-.068l2.05-1.309.645.332c.17.091.338.173.508.244.169.072.338.134.507.186l.665.215.585 2.305c.013.065.03.12.05.166a.34.34 0 0 0 .068.107h1.132a.687.687 0 0 0 .069-.098.545.545 0 0 0 .068-.156l.508-2.324.684-.235a6.854 6.854 0 0 0 .937-.39l.645-.332 2.05 1.308.098.05c.04.019.078.035.117.048l.82-.82c0-.04-.01-.085-.029-.137a1.101 1.101 0 0 0-.088-.176l-1.23-2.031.312-.625c.079-.143.147-.29.205-.44.06-.15.114-.302.166-.458l.215-.645 2.325-.586a.847.847 0 0 0 .166-.049.34.34 0 0 0 .107-.068zM10 6.5c1.042 0 1.93.365 2.666 1.094.736.729 1.104 1.614 1.104 2.656s-.368 1.927-1.104 2.656C11.93 13.636 11.042 14 10 14c-1.029 0-1.91-.365-2.646-1.094-.736-.729-1.104-1.614-1.104-2.656s.368-1.927 1.104-2.656C8.089 6.864 8.97 6.5 10 6.5zm0 6.25c.69 0 1.28-.244 1.768-.732a2.409 2.409 0 0 0 .732-1.768c0-.69-.244-1.28-.732-1.768A2.409 2.409 0 0 0 10 7.75c-.69 0-1.28.244-1.768.732A2.409 2.409 0 0 0 7.5 10.25c0 .69.244 1.28.732 1.768A2.409 2.409 0 0 0 10 12.75z" fill="#FFF" fill-rule="evenodd"/></svg>
