<svg width="82" height="83" xmlns="http://www.w3.org/2000/svg"><path d="M57.031 26.07l3.516 3.516-26.172 26.367c-.52.521-1.107.781-1.758.781-.65 0-1.237-.26-1.758-.78L19.922 45.015l3.515-3.516 9.18 9.18 24.414-24.61zM40.625.875c11.198 0 20.768 3.971 28.71 11.914C77.28 20.732 81.25 30.302 81.25 41.5c0 11.198-3.971 20.768-11.914 28.71-7.943 7.944-17.513 11.915-28.711 11.915-11.198 0-20.768-3.971-28.71-11.914C3.97 62.268 0 52.698 0 41.5c0-11.198 3.971-20.768 11.914-28.71C19.857 4.845 29.427.874 40.625.874zm0 77.93c10.287 0 19.075-3.646 26.367-10.938C74.284 60.575 77.93 51.787 77.93 41.5c0-10.287-3.646-19.075-10.938-26.367C59.7 7.84 50.912 4.195 40.625 4.195c-10.287 0-19.075 3.646-26.367 10.938C6.966 22.425 3.32 31.213 3.32 41.5c0 10.287 3.646 19.075 10.938 26.367 7.292 7.292 16.08 10.938 26.367 10.938z" fill="#6A9C1F" fill-rule="evenodd"/></svg>
